<svg width="56" height="15" viewBox="0 0 56 15" fill="none" xmlns="http://www.w3.org/2000/svg">
<path d="M48.6818 6.86328H6.6123V8.13426H48.6818V6.86328Z" fill="#AE6728"/>
<path d="M0.00316464 10.4856C0.00316464 11.3329 0.702205 12.032 1.54953 12.032C1.88845 12.032 2.2062 11.926 2.4604 11.7354L6.20979 7.986C6.20979 7.986 6.37926 8.13428 6.50636 8.15547L5.25656 12.8793L5.15064 13.2606C5.06591 13.8537 5.36247 14.468 5.91323 14.7858C6.65464 15.2306 7.60787 14.9552 8.03153 14.2138C8.201 13.9173 8.26455 13.6207 8.24336 13.2818L8.11627 12.7946V12.7522L6.90883 8.13428C7.01475 8.1131 7.14185 8.04955 7.22658 7.96482L10.9548 11.7142C10.9548 11.7142 11.0607 11.7989 11.1243 11.8201C11.8657 12.2438 12.8189 11.9896 13.2426 11.2482C13.6662 10.5068 13.412 9.55355 12.6706 9.12989C12.6071 9.08752 12.5435 9.06634 12.48 9.04515L12.0563 8.93924H11.9928L7.39604 7.68944C7.39604 7.62589 7.41723 7.58353 7.41723 7.51998C7.41723 7.45643 7.41723 7.41406 7.39604 7.35051L12.0987 6.10071L12.48 5.9948C12.48 5.9948 12.6071 5.95243 12.6706 5.91007C13.412 5.46522 13.6662 4.53317 13.2426 3.79176C12.8189 3.05036 11.8657 2.79616 11.1243 3.21982C11.0607 3.26219 11.0183 3.30455 10.9548 3.32574L10.8065 3.47402L7.22658 7.05395C7.22658 7.05395 7.05711 6.90567 6.93002 6.88449L8.17982 2.18185L8.28573 1.77937C8.28573 1.77937 8.28573 1.63109 8.28573 1.56754C8.26455 0.69904 7.56551 0 6.697 0C5.8285 0 5.15064 0.69904 5.15064 1.54636C5.15064 1.63109 5.15064 1.69464 5.15064 1.75819V1.80056L5.23537 2.07594V2.16067L6.50636 6.8633C6.40044 6.88449 6.29453 6.94803 6.20979 7.03277L2.71459 3.53757L2.52395 3.34692C2.03674 2.94444 1.3377 2.85971 0.765754 3.19864C0.0455308 3.60112 -0.229849 4.55435 0.214995 5.29576C0.384459 5.59232 0.659839 5.82533 0.956401 5.95243L1.3377 6.05835L6.04033 7.30815C6.04033 7.30815 6.01915 7.41406 6.01915 7.47761C6.01915 7.54116 6.01915 7.58353 6.04033 7.64707L1.31651 8.91806H1.27415L0.956401 9.00279C0.384459 9.2358 0.00316464 9.80774 0.00316464 10.4432V10.4856Z" fill="#AE6728"/>
<path d="M55.2909 10.4856C55.2909 11.3329 54.5919 12.032 53.7445 12.032C53.4056 12.032 53.0879 11.926 52.8337 11.7354L49.0843 7.986C49.0843 7.986 48.9148 8.13428 48.7877 8.15547L50.0375 12.8793L50.1434 13.2606C50.2282 13.8537 49.9316 14.468 49.3808 14.7858C48.6394 15.2306 47.6862 14.9552 47.2625 14.2138C47.0931 13.9173 47.0295 13.6207 47.0507 13.2818L47.1778 12.7946V12.7522L48.3852 8.13428C48.2793 8.1131 48.1522 8.04955 48.0675 7.96482L44.3393 11.7142C44.3393 11.7142 44.2334 11.7989 44.1698 11.8201C43.4284 12.2438 42.4752 11.9896 42.0515 11.2482C41.6278 10.5068 41.882 9.55355 42.6235 9.12989C42.687 9.08752 42.7505 9.06634 42.8141 9.04515L43.2378 8.93924H43.3013L47.898 7.68944C47.898 7.62589 47.8768 7.58353 47.8768 7.51998C47.8768 7.45643 47.8768 7.41406 47.898 7.35051L43.1954 6.10071L42.8141 5.9948C42.8141 5.9948 42.687 5.95243 42.6235 5.91007C41.882 5.46522 41.6278 4.53317 42.0515 3.79176C42.4752 3.05036 43.4284 2.79616 44.1698 3.21982C44.2334 3.26219 44.2757 3.30455 44.3393 3.32574L44.4876 3.47402L48.0675 7.05395C48.0675 7.05395 48.237 6.90567 48.3641 6.88449L47.1143 2.18185L47.0083 1.77937C47.0083 1.77937 47.0083 1.63109 47.0083 1.56754C47.0295 0.69904 47.7286 0 48.5971 0C49.4656 0 50.1434 0.69904 50.1434 1.54636C50.1434 1.63109 50.1434 1.69464 50.1434 1.75819V1.80056L50.0587 2.07594V2.16067L48.7877 6.8633C48.8936 6.88449 48.9995 6.94803 49.0843 7.03277L52.5795 3.53757L52.7701 3.34692C53.2573 2.94444 53.9564 2.85971 54.5283 3.19864C55.2697 3.6223 55.5239 4.57554 55.1003 5.31694C54.9308 5.6135 54.6554 5.84652 54.3589 5.97362L53.9776 6.07953L49.2749 7.32933C49.2749 7.32933 49.2961 7.43524 49.2961 7.49879C49.2961 7.56234 49.2961 7.60471 49.2749 7.66826L53.9987 8.93924H54.0411L54.3589 9.02397C54.9308 9.25699 55.3121 9.82893 55.3121 10.4644L55.2909 10.4856Z" fill="#AE6728"/>
<path d="M34.3407 10.4856C34.3407 11.3329 33.6417 12.032 32.7943 12.032C32.4554 12.032 32.1377 11.926 31.8835 11.7142L28.1341 7.96482C28.1341 7.96482 27.9434 8.1131 27.8375 8.13428L29.0873 12.8581L29.1932 13.2394C29.278 13.8325 28.9814 14.4468 28.4306 14.7646C27.6892 15.2094 26.736 14.934 26.3123 14.1926C26.1429 13.8961 26.0793 13.5995 26.1005 13.2606L26.2276 12.7734V12.731L27.435 8.1131C27.3291 8.09192 27.202 8.02837 27.1173 7.94364L23.3891 11.693C23.3891 11.693 23.2832 11.7778 23.2196 11.799C22.4782 12.2226 21.525 11.9684 21.1013 11.227C20.6777 10.4856 20.9318 9.53236 21.6733 9.1087C21.7368 9.06634 21.8004 9.04516 21.8639 9.02397L22.2876 8.91806H22.3511L26.9478 7.66826C26.9478 7.60471 26.9266 7.56234 26.9266 7.49879C26.9266 7.43524 26.9266 7.39288 26.9478 7.32933L22.2452 6.07953L21.8639 5.97362C21.8639 5.97362 21.7368 5.93125 21.6733 5.88888C20.9318 5.44404 20.6777 4.51199 21.1013 3.77058C21.525 3.02917 22.4782 2.77498 23.2196 3.19864C23.2832 3.241 23.3255 3.28337 23.3891 3.30455L23.5374 3.45283L27.1173 7.03277C27.1173 7.03277 27.2868 6.88449 27.4139 6.8633L26.1641 2.16067L26.0581 1.75819C26.0581 1.75819 26.0581 1.60991 26.0581 1.54636C26.0581 0.677857 26.7572 0 27.6257 0C28.4942 0 29.1721 0.69904 29.1721 1.54636C29.1721 1.63109 29.1721 1.69464 29.1721 1.75819V1.80056L29.0873 2.07594V2.16067L27.8163 6.8633C27.9223 6.88449 28.0282 6.94803 28.1129 7.03277L31.6081 3.53757L31.7987 3.34692C32.286 2.94444 32.985 2.85971 33.5569 3.19864C34.2983 3.6223 34.5525 4.57554 34.1289 5.31694C33.9594 5.6135 33.684 5.84652 33.3875 5.97362L33.0062 6.07953L28.3035 7.32933C28.3035 7.32933 28.3247 7.43524 28.3247 7.49879C28.3247 7.56234 28.3247 7.60471 28.3035 7.66826L33.0274 8.93924H33.0697L33.3875 9.02397C33.9594 9.25699 34.3407 9.82893 34.3407 10.4644V10.4856Z" fill="#AE6728"/>
</svg>
