<svg width="14" height="15" viewBox="0 0 14 15" fill="none" xmlns="http://www.w3.org/2000/svg">
<path d="M13.4442 10.4856C13.4442 11.3329 12.7452 12.032 11.8979 12.032C11.5589 12.032 11.2412 11.926 10.987 11.7354L7.2376 7.986C7.2376 7.986 7.06813 8.13428 6.94103 8.15547L8.19083 12.8793L8.29675 13.2606C8.38148 13.8537 8.08492 14.468 7.53416 14.7858C6.79275 15.2306 5.83951 14.9552 5.41585 14.2138C5.24639 13.9173 5.18284 13.6207 5.20402 13.2818L5.33112 12.7946V12.7522L6.53856 8.13428C6.43264 8.1131 6.30554 8.04955 6.22081 7.96482L2.4926 11.7142C2.4926 11.7142 2.38668 11.7989 2.32313 11.8201C1.58173 12.2438 0.628491 11.9896 0.20483 11.2482C-0.218831 10.5068 0.0353666 9.55355 0.776773 9.12989C0.840322 9.08752 0.903867 9.06634 0.967416 9.04515L1.39108 8.93924H1.45463L6.05135 7.68944C6.05135 7.62589 6.03016 7.58353 6.03016 7.51998C6.03016 7.45643 6.03016 7.41406 6.05135 7.35051L1.34871 6.10071L0.967416 5.9948C0.967416 5.9948 0.840322 5.95243 0.776773 5.91007C0.0353666 5.46522 -0.218831 4.53317 0.20483 3.79176C0.628491 3.05036 1.58173 2.79616 2.32313 3.21982C2.38668 3.26219 2.42905 3.30455 2.4926 3.32574L2.64088 3.47402L6.22081 7.05395C6.22081 7.05395 6.39027 6.90567 6.51737 6.88449L5.26757 2.18185L5.16166 1.77937C5.16166 1.77937 5.16166 1.63109 5.16166 1.56754C5.18284 0.69904 5.88188 0 6.75039 0C7.61889 0 8.29675 0.69904 8.29675 1.54636C8.29675 1.63109 8.29675 1.69464 8.29675 1.75819V1.80056L8.21201 2.07594V2.16067L6.94103 6.8633C7.04695 6.88449 7.15286 6.94803 7.2376 7.03277L10.7328 3.53757L10.9234 3.34692C11.4107 2.94444 12.1097 2.85971 12.6816 3.19864C13.423 3.6223 13.6772 4.57554 13.2536 5.31694C13.0841 5.6135 12.8087 5.84652 12.5122 5.97362L12.1309 6.07953L7.42824 7.32933C7.42824 7.32933 7.44943 7.43524 7.44943 7.49879C7.44943 7.56234 7.44943 7.60471 7.42824 7.66826L12.1521 8.93924H12.1944L12.5122 9.02397C13.0841 9.25699 13.4654 9.82893 13.4654 10.4644L13.4442 10.4856Z" fill="#AE6728"/>
</svg>
