<svg width="91" height="60" viewBox="0 0 91 60" fill="none" xmlns="http://www.w3.org/2000/svg">
<g clip-path="url(#clip0_8262_353)">
<path d="M45.3401 0.00218337C48.7727 0.00218337 52.054 0.00110406 55.2716 0.486803C58.6836 1.00164 61.9595 1.52512 65.0346 2.5235C68.3429 3.59743 71.082 5.48195 73.8859 7.03726C76.9556 8.74045 80.4162 9.63737 82.7297 11.8176C85.2885 14.2288 86.617 17.442 88.0481 20.3001C89.5667 23.3341 91 26.3843 91 29.7561C91 33.1279 90.1608 36.476 88.6422 39.51C87.211 42.3681 84.7527 44.7167 82.194 47.1279C79.8804 49.3071 77.2515 51.3039 74.1819 53.007C71.379 54.5624 68.4995 56.394 65.1912 57.4668C62.1161 58.4652 58.7257 58.7836 55.3137 59.2985C52.0961 59.7842 48.7738 60.0011 45.3401 60.0011C41.9065 60.0011 38.6609 59.2769 35.4443 58.7912C32.0323 58.2763 28.5782 58.4274 25.5021 57.4291C22.1938 56.3551 19.6156 53.9979 16.8116 52.4426C13.742 50.7394 11.18 48.9034 8.86648 46.7232C6.30774 44.312 3.96394 42.1188 2.5339 39.2607C1.01421 36.2267 0 33.1279 0 29.755C0 26.3821 0.600532 23.0761 2.12022 20.0421C3.55135 17.1841 6.18569 15.0675 8.74551 12.6573C11.0591 10.4782 13.3294 8.02701 16.3991 6.3249C19.2019 4.76959 22.3579 3.66004 25.6663 2.5861C28.7413 1.58772 31.988 0.944439 35.4 0.429598C38.6166 -0.0561005 41.9065 0.00218337 45.3401 0.00218337ZM45.3401 57.6093C49.1334 57.6093 52.8857 57.0265 56.3852 56.4177C60.1579 55.7626 63.7158 54.5267 66.9939 53.2628C70.6186 51.8662 74.3093 50.6325 77.1251 48.6228C80.3308 46.3357 82.0601 42.7664 83.9211 39.8781C85.9819 36.6778 87.9606 33.4291 87.9606 29.7539C87.9606 26.0788 86.2001 22.6897 84.1392 19.4895C82.2793 16.6012 79.7184 14.0292 76.5127 11.7421C73.6969 9.73343 70.6629 7.52944 67.037 6.13278C63.759 4.86997 60.1223 3.95146 56.3485 3.2963C52.849 2.68864 49.1324 2.90127 45.3391 2.90127C41.5458 2.90127 37.8411 2.75664 34.3416 3.3643C30.5688 4.01945 26.9613 4.97682 23.6832 6.24072C20.0584 7.63737 16.466 9.01028 13.6491 11.02C10.4434 13.3071 8.45389 16.6368 6.59289 19.5251C4.53207 22.7253 2.29196 26.0799 2.29196 29.755C2.29196 33.4301 3.57295 37.401 5.63485 40.6012C7.49477 43.4895 10.6378 45.931 13.8436 48.2181C16.6594 50.2267 20.0876 51.7928 23.7134 53.1895C26.9915 54.4523 30.6174 55.21 34.3902 55.8651C37.8897 56.4728 41.5458 57.6082 45.3391 57.6082L45.3401 57.6093Z" fill="#AE6728"/>
<path d="M56.7157 9.75626C52.2603 7.43246 47.1526 6.3132 42.385 7.07844C39.4677 7.54903 36.1464 8.87013 34.1698 10.76C33.3209 11.5728 32.4298 12.6197 31.6899 13.549C30.7071 14.7849 30.7319 16.6262 31.7612 17.8167C32.7927 19.0094 33.8426 20.1772 35.1387 21.1216C37.7223 23.0018 40.6245 23.8092 43.6995 24.0412C48.332 24.3898 53.3858 24.1697 56.7837 21.1216C57.7213 20.2808 59.4732 19.1281 60.1893 18.0703C60.3686 17.8059 60.59 17.4487 60.8147 17.0687C61.5632 15.8113 61.4044 14.1556 60.4312 13.0968C59.2701 11.8329 57.7331 10.2873 56.7157 9.75734V9.75626ZM43.0806 17.4951C42.3958 16.5042 42.4855 14.8291 43.1703 13.8782C43.8745 12.896 45.0874 12.7644 46.2507 12.8259C47.9637 12.9209 48.682 13.3116 49.2944 14.7978C50.3075 18.0552 44.8358 20.0337 43.0806 17.494V17.4951Z" fill="#AE6728"/>
<path d="M78.4482 37.3159C78.0302 36.0649 77.6932 35.045 77.582 34.7719C75.7923 30.3553 74.9336 25.5836 72.7475 21.3234C71.8251 19.5264 70.9146 18.0995 69.1702 17.0881C69.032 17.0083 68.0642 16.5237 67.2077 16.0919C66.537 15.7552 65.7355 16.188 65.647 16.9327C64.9687 22.6014 64.8596 25.4335 65.7226 31.7692C65.769 32.106 65.8867 32.7201 65.944 33.3094C65.998 33.8717 65.593 34.0693 64.9363 34.2063C64.1251 34.3758 62.5881 34.6834 61.8969 35.1486C59.9603 36.4513 58.6404 37.9009 58.8586 40.3089C59.1146 43.1378 61.1333 45.1335 63.5105 45.0363C65.3154 44.9629 66.6428 43.971 68.4034 43.5825C69.1616 43.4141 69.9425 43.4022 70.7191 43.3936C72.6935 43.3699 72.9613 43.3537 74.0825 43.3558C77.2223 43.3634 79.443 40.2905 78.4493 37.3148L78.4482 37.3159ZM68.6215 39.9548C68.0048 40.8982 66.982 41.0396 66.0293 41.14C65.7172 41.1723 63.4274 41.5706 64.339 40.2258C65.3002 38.814 66.9139 38.4136 68.3742 39.2177C68.5308 39.3062 68.722 39.4745 68.7166 39.7044C68.7166 39.8081 68.6691 39.8868 68.6226 39.9548H68.6215Z" fill="#AE6728"/>
<path d="M32.2689 39.4764C32.4352 39.1796 32.7322 39.144 33.0627 39.157C33.9571 39.1904 35.1398 39.402 36.0136 39.5908C36.5936 39.716 36.882 39.7689 37.826 40.0118C38.6501 40.2244 39.3521 39.5056 38.7959 38.8612C38.2213 38.1953 37.57 37.5973 36.8571 37.0836C36.464 36.7997 35.3633 36.3701 34.9432 36.1294C34.6148 35.9416 33.7108 35.5585 33.6665 35.1267C33.6449 34.9109 33.8264 34.6119 33.9128 34.4144C34.0327 34.1413 34.1547 33.8704 34.28 33.6006C34.401 33.3383 34.523 33.0771 34.6526 32.8191C34.7488 32.6281 34.7898 32.4392 35.0285 32.3852C35.7554 32.2212 37.3378 33.0868 37.9145 33.443C38.7376 33.9524 39.5185 34.5374 40.2562 35.1645C40.7433 35.579 41.185 35.2433 41.2045 34.6043L41.1613 28.7349C41.1699 28.4727 41.3838 28.2633 41.6462 28.2622L44.852 28.2471C45.1285 28.246 45.351 28.4727 45.3434 28.749L45.3942 35.0296C45.3769 35.6578 45.7765 36.0366 46.2906 35.6761L48.8256 34.097C48.8829 34.0571 49.8279 33.5099 49.8895 33.4754C50.5408 33.1062 51.6285 32.5072 52.1231 33.0447C52.2247 33.1559 53.3112 35.6772 53.3393 35.8261C53.4074 36.1812 53.1741 36.3259 53.0067 36.437C52.5131 36.7641 51.2396 37.1116 50.382 37.5876C50.152 37.715 48.831 38.2579 48.0922 38.9001C47.4528 39.4548 48.0555 40.4867 48.8505 40.1942C50.4209 39.6178 52.0789 39.3243 53.7638 39.4376C54.0371 39.4559 54.2877 39.6243 54.3978 39.8747C54.7391 40.6464 54.6225 41.538 54.5955 42.3982C54.5825 42.8029 54.2693 43.1343 53.8643 43.1505C52.2031 43.2152 50.7331 43.4387 49.1864 44.2179C48.0944 44.7673 46.8242 45.5628 45.985 46.5849C45.5702 47.09 45.9375 47.8488 46.5909 47.8369L54.2704 47.8542C54.8342 47.8466 55.02 48.2687 55.0178 48.7673C55.0146 49.47 54.9638 50.0334 54.9195 50.7382C54.8882 51.2325 54.7197 51.7722 54.1213 51.7722H32.6005C32.3434 51.7733 32.0939 51.6524 31.9621 51.4322C31.5387 50.7263 31.5441 49.3221 31.718 48.5072C31.7893 48.1726 32.0734 47.9265 32.4147 47.9038L39.7496 47.9352C40.308 47.8974 40.6461 47.2876 40.3696 46.8019C38.9709 44.3464 35.6982 42.899 32.9493 42.6788C32.554 42.6475 32.2516 42.3172 32.2516 41.9211C32.1954 41.5099 32.1587 41.0933 32.1425 40.6777C32.1285 40.3097 32.082 39.8952 32.2311 39.5466C32.243 39.5196 32.2548 39.4959 32.2678 39.4721L32.2689 39.4764Z" fill="#AE6728"/>
<path d="M28.8471 33.2531C28.6743 32.4404 28.36 31.6654 28.022 30.9077C27.7109 30.2105 27.3739 29.5154 26.903 28.9142C26.5044 28.4059 26.0184 27.9741 25.5928 27.4884C23.4931 25.088 23.0978 21.0815 24.8994 18.3929C25.1943 17.9676 25.5583 17.5661 25.9763 17.2391C26.2398 17.0329 26.5757 16.9466 26.8263 16.7221C27.2799 16.3152 27.1525 15.0588 26.4007 15.0394C24.8422 14.9995 22.8731 15.6287 21.2616 15.6546C19.689 15.6374 17.854 14.9995 16.1215 15.0394C15.5588 15.0524 15.373 15.6741 15.4345 16.1436C15.521 16.8052 16.0642 17.0405 16.5762 17.3675C17.9242 18.2278 18.5204 19.9957 18.6975 21.5143C18.8746 23.0329 18.596 24.7404 17.8475 26.1501C17.5937 26.6282 17.2869 27.0794 16.9294 27.4873C16.5049 27.973 16.0178 28.4048 15.6192 28.9131C15.1483 29.5143 14.8113 30.2094 14.5003 30.9067C14.1622 31.6654 13.8468 32.4404 13.6751 33.252C13.2776 35.1247 13.687 37.1549 14.7789 38.7275C15.1786 39.3028 15.6614 39.8155 16.0826 40.3756C16.5686 41.0232 16.9704 41.7356 17.2729 42.4868C17.4997 43.0491 17.6703 43.6644 17.6347 44.2601C17.6131 44.6228 17.8777 44.9444 18.2385 44.9865C20.268 45.2229 22.2553 45.2229 24.2848 44.9865C24.6456 44.9444 24.9091 44.6228 24.8886 44.2601C24.854 43.6644 25.0247 43.0491 25.2504 42.4868C25.5529 41.7356 25.9547 41.0232 26.4407 40.3756C26.8609 39.8155 27.3447 39.3028 27.7444 38.7275C28.8374 37.1549 29.2468 35.1247 28.8482 33.252L28.8471 33.2531Z" fill="#AE6728"/>
</g>
<defs>
<clipPath id="clip0_8262_353">
<rect width="91" height="60" fill="white"/>
</clipPath>
</defs>
</svg>
