<svg width="214" height="15" viewBox="0 0 214 15" fill="none" xmlns="http://www.w3.org/2000/svg">
<g clip-path="url(#clip0_8262_416)">
<path d="M1.98969 12.2433V2.75368C1.98969 1.20738 1.77802 0.995562 0 0.953198V0.296551H5.88439V0.953198C3.9582 0.995562 3.74653 1.27093 3.74653 2.90196V12.1162C3.74653 13.5778 4.12754 13.9167 5.69389 13.9167H7.95874C9.56742 13.9167 10.3506 13.3448 11.1338 9.65907H12.0228L11.4724 14.7004H0V14.0438C1.77802 14.0014 1.98969 13.7896 1.98969 12.2433Z" fill="#AE6728"/>
<path d="M14.4358 7.49849C14.4358 2.98669 17.5897 0 21.8019 0C26.0141 0 29.1891 2.98669 29.1891 7.49849C29.1891 12.0103 26.0352 14.997 21.8019 14.997C17.5685 14.997 14.4358 12.0103 14.4358 7.49849ZM21.8019 14.1285C25.0192 14.1285 27.1147 11.5019 27.1147 7.49849C27.1147 3.49506 25.0192 0.868469 21.8019 0.868469C18.5845 0.868469 16.5102 3.49506 16.5102 7.49849C16.5102 11.5019 18.6057 14.1285 21.8019 14.1285Z" fill="#AE6728"/>
<path d="M33.3801 12.2433V2.75368C33.3801 1.20738 33.1685 0.995562 31.3905 0.953198V0.296551H38.1639C41.1695 0.296551 42.7147 1.37684 42.7147 3.57979C42.7147 5.52855 41.3389 6.79948 39.0952 7.22312L43.3709 12.9847C43.8154 13.599 44.2387 13.9379 44.7044 14.0438V14.7004H42.2067L37.1478 7.37139H35.137V12.1374C35.137 13.6625 35.4545 13.9802 37.1478 14.0438V14.7004H31.3905V14.0438C33.1685 14.0014 33.3801 13.7896 33.3801 12.2433ZM37.1055 6.60884C39.3492 6.60884 40.7674 5.61327 40.7674 3.6857C40.7674 1.88521 39.7302 1.05911 37.7193 1.05911H35.137V6.60884H37.1055Z" fill="#AE6728"/>
<path d="M49.1071 12.2433V2.75368C49.1071 1.20738 48.8954 0.995562 47.1174 0.953198V0.296551H58.9497L59.1402 3.93988H58.2724C57.9337 1.60985 57.2987 1.05911 54.928 1.05911H50.864V6.96893H54.1872C56.0498 6.96893 56.3038 6.73593 56.4944 4.78717H57.2987V9.91325H56.4944C56.3038 7.96449 56.0498 7.73149 54.1872 7.73149H50.864V12.328C50.864 13.6625 51.1603 13.9379 52.6843 13.9379H55.5418C57.5315 13.9379 58.1877 13.1753 58.5264 10.4004H59.4154L59.119 14.7004H47.1174V14.0438C48.8954 14.0014 49.1071 13.7896 49.1071 12.2433Z" fill="#AE6728"/>
<path d="M75.9044 12.2433V2.75368C75.9044 1.20738 75.6927 0.995562 73.9147 0.953198V0.296551H80.6246C83.7996 0.296551 85.4083 1.5463 85.4083 4.02461C85.4083 6.50293 83.3763 7.9645 80.0954 7.9645H77.6612V12.1162C77.6612 13.6837 78.0422 13.9802 80.3282 14.0438V14.7004H73.9147V14.0438C75.6927 14.0014 75.9044 13.7896 75.9044 12.2433ZM79.7779 7.20194C82.0851 7.20194 83.4609 6.03692 83.4609 4.02461C83.4609 2.01231 82.5084 1.05911 80.3071 1.05911H77.6612V7.20194H79.7779Z" fill="#AE6728"/>
<path d="M89.7082 12.2433V2.75368C89.7082 1.20738 89.4965 0.995562 87.7185 0.953198V0.296551H99.5508L99.7413 3.93988H98.8734C98.5348 1.60985 97.8998 1.05911 95.5291 1.05911H91.465V6.96893H94.7882C96.6509 6.96893 96.9049 6.73593 97.0954 4.78717H97.8998V9.91325H97.0954C96.9049 7.96449 96.6509 7.73149 94.7882 7.73149H91.465V12.328C91.465 13.6625 91.7614 13.9379 93.2854 13.9379H96.1429C98.1326 13.9379 98.7888 13.1753 99.1274 10.4004H100.016L99.7201 14.7004H87.7185V14.0438C89.4965 14.0014 89.7082 13.7896 89.7082 12.2433Z" fill="#AE6728"/>
<path d="M105.103 12.2433V2.75368C105.103 1.20738 104.891 0.995562 103.113 0.953198V0.296551H109.886C112.892 0.296551 114.437 1.37684 114.437 3.57979C114.437 5.52855 113.061 6.79948 110.818 7.22312L115.093 12.9847C115.538 13.599 115.961 13.9379 116.427 14.0438V14.7004H113.929L108.87 7.37139H106.859V12.1374C106.859 13.6625 107.177 13.9802 108.87 14.0438V14.7004H103.113V14.0438C104.891 14.0014 105.103 13.7896 105.103 12.2433ZM108.828 6.60884C111.072 6.60884 112.49 5.61327 112.49 3.6857C112.49 1.88521 111.453 1.05911 109.442 1.05911H106.859V6.60884H108.828Z" fill="#AE6728"/>
<path d="M121.041 12.2433V2.75368C121.041 1.20738 120.83 0.995562 119.051 0.953198V0.296551H130.884L131.074 3.93988H130.206C129.868 1.63103 129.275 1.05911 126.862 1.05911H122.798V6.96893H126.121C128.005 6.96893 128.238 6.73593 128.428 4.78717H129.233V9.91325H128.428C128.238 7.96449 127.984 7.73149 126.121 7.73149H122.798V12.2221C122.798 13.7684 123.221 13.9802 125.359 14.0438V14.7004H119.051V14.0438C120.83 14.0014 121.041 13.7896 121.041 12.2433Z" fill="#AE6728"/>
<path d="M135.274 9.6167V2.90196C135.274 1.29211 135.126 0.995562 133.941 0.953198V0.296551H139.317V0.953198C137.349 0.995562 137.158 1.24975 137.158 2.90196V9.57434C137.158 12.3492 138.619 13.832 141.116 13.832C143.614 13.832 145.096 12.3068 145.096 9.57434V3.19851C145.096 1.37684 144.778 0.995562 143 0.953198V0.296551H147.466V0.953198C146.281 0.995562 146.048 1.39802 146.048 3.19851V9.55316C146.048 12.9635 144.122 14.997 140.757 14.997C137.391 14.997 135.274 13.1118 135.274 9.6167Z" fill="#AE6728"/>
<path d="M153.203 2.47831L152.356 11.8196C152.208 13.599 152.568 13.9802 154.557 14.0438V14.7004H149.414V14.0438C150.896 13.9802 151.213 13.6201 151.382 11.8196L152.208 2.81723C152.356 1.20738 152.102 0.995562 150.515 0.953198V0.296551H154.325L158.791 12.6276L163.257 0.296551H167.046V0.953198C165.416 0.995562 165.141 1.24975 165.289 2.81723L166.115 12.0315C166.263 13.6625 166.623 14.0014 167.998 14.0438V14.7004H162.135V14.0438C164.125 14.0014 164.527 13.6625 164.358 11.9256L163.511 2.47831L159.045 14.7428H157.711L153.203 2.47831Z" fill="#AE6728"/>
<path d="M172.888 12.2433V2.75368C172.888 1.20738 172.676 0.995562 170.898 0.953198V0.296551H182.73L182.921 3.93988H182.053C181.714 1.60985 181.079 1.05911 178.709 1.05911H174.645V6.96893H177.968C179.831 6.96893 180.085 6.73593 180.275 4.78717H181.079V9.91325H180.275C180.085 7.96449 179.831 7.73149 177.968 7.73149H174.645V12.328C174.645 13.6625 174.941 13.9379 176.465 13.9379H179.323C181.312 13.9379 181.968 13.1753 182.307 10.4004H183.196L182.9 14.7004H170.898V14.0438C172.676 14.0014 172.888 13.7896 172.888 12.2433Z" fill="#AE6728"/>
<path d="M188.282 12.2433V2.75368C188.282 1.20738 188.071 0.995562 186.293 0.953198V0.296551H193.066C196.072 0.296551 197.617 1.37684 197.617 3.57979C197.617 5.52855 196.241 6.79948 193.997 7.22312L198.273 12.9847C198.718 13.599 199.141 13.9379 199.607 14.0438V14.7004H197.109L192.05 7.37139H190.039V12.1374C190.039 13.6625 190.357 13.9802 192.05 14.0438V14.7004H186.293V14.0438C188.071 14.0014 188.282 13.7896 188.282 12.2433ZM192.008 6.60884C194.251 6.60884 195.669 5.61327 195.669 3.6857C195.669 1.88521 194.632 1.05911 192.621 1.05911H190.039V6.60884H192.008Z" fill="#AE6728"/>
<path d="M200.432 0.953198V0.296551H205.554V0.953198C204.115 1.03793 203.755 1.20738 203.755 1.71576C203.755 1.94876 203.925 2.3724 204.348 3.02905L207.671 8.11277L210.91 3.15614C211.418 2.39359 211.566 2.01231 211.566 1.71576C211.566 1.20738 211.185 1.03793 209.767 0.953198V0.296551H214V0.953198C213.555 1.05911 213.259 1.27093 212.624 2.22413L208.094 9.1507V12.1586C208.094 13.7049 208.412 13.9802 210.253 14.0438V14.7004H204.157V14.0438C206.02 13.9802 206.338 13.7049 206.338 12.1586V9.1507L201.787 2.28767C201.109 1.27093 200.877 1.05911 200.432 0.953198Z" fill="#AE6728"/>
</g>
<defs>
<clipPath id="clip0_8262_416">
<rect width="214" height="15" fill="white"/>
</clipPath>
</defs>
</svg>
